<?xml version="1.0" standalone="no"?>
<!DOCTYPE svg PUBLIC "-//W3C//DTD SVG 20010904//EN"
 "http://www.w3.org/TR/2001/REC-SVG-20010904/DTD/svg10.dtd">
<svg version="1.0" xmlns="http://www.w3.org/2000/svg"
 width="1200.000000pt" height="1200.000000pt" viewBox="0 0 1200.000000 1200.000000"
 preserveAspectRatio="xMidYMid meet">

<g transform="translate(0.000000,1200.000000) scale(0.100000,-0.100000)"
fill="#000000" stroke="none">
<path d="M6325 8815 c-5 -2 -75 -24 -154 -49 -114 -36 -156 -55 -205 -91 -115
-84 -135 -106 -148 -162 -7 -29 -15 -53 -18 -53 -3 0 -11 14 -19 32 -11 24
-12 41 -4 69 9 35 9 36 -9 26 -34 -22 -32 -51 11 -130 36 -65 49 -79 94 -102
l53 -28 105 26 c57 15 127 28 154 30 79 7 179 58 245 125 74 76 82 105 52 196
-34 105 -43 116 -100 115 -26 0 -51 -2 -57 -4z m80 -51 c24 -26 27 -36 28 -93
1 -23 -3 -25 -63 -28 -155 -9 -289 -54 -444 -148 -32 -19 -60 -34 -61 -33 -1
2 -5 16 -9 31 -6 24 0 35 47 82 75 75 298 183 416 201 20 3 38 8 40 10 10 9
23 3 46 -22z m-215 -279 c0 -23 -4 -25 -46 -25 -27 0 -43 -4 -39 -10 8 -13 -1
-13 -48 1 -39 10 -42 21 -9 25 9 2 21 10 27 18 7 11 26 16 62 16 50 0 53 -2
53 -25z m-213 -67 c-2 -31 -5 -33 -42 -33 -54 0 -61 29 -13 50 50 22 58 19 55
-17z"/>
<path d="M3340 8536 c-5 -14 -15 -38 -21 -53 -28 -72 -39 -189 -33 -338 10
-248 19 -313 63 -445 87 -259 288 -620 407 -732 27 -24 40 -27 159 -38 83 -7
136 -16 145 -25 14 -13 27 -9 102 29 187 93 367 116 558 71 136 -32 339 -107
423 -155 143 -82 267 -161 267 -169 0 -5 14 -11 30 -14 18 -4 30 -13 30 -22 0
-8 5 -15 11 -15 6 0 63 -25 127 -55 184 -88 507 -175 702 -190 41 -3 118 -14
170 -25 52 -11 106 -20 119 -20 17 0 55 33 140 119 64 65 142 136 174 156 56
37 57 38 57 86 0 30 -4 49 -11 49 -8 0 -8 5 1 15 10 12 10 15 -4 15 -11 0 -16
9 -17 28 -1 44 -9 77 -19 80 -6 2 -10 36 -10 76 0 40 -4 76 -10 82 -5 5 -12
39 -16 74 -8 94 -11 96 -75 62 -109 -59 -228 -91 -446 -122 -324 -46 -456 -38
-688 41 -126 43 -157 57 -375 162 -161 78 -291 125 -368 133 -31 4 -64 13 -72
20 -12 10 -74 15 -232 20 -215 7 -216 6 -303 -21 -47 -15 -90 -24 -93 -20 -4
4 -7 48 -7 98 0 90 1 94 55 212 30 66 76 154 102 196 25 43 49 86 52 97 5 14
-8 39 -47 88 -29 38 -77 112 -106 164 -88 155 -89 156 -173 170 -40 6 -126 23
-191 36 -66 13 -162 30 -215 38 -54 9 -132 24 -175 35 -43 11 -100 23 -127 27
-47 6 -50 5 -60 -20z m146 -68 c6 -4 65 -18 130 -29 66 -12 122 -26 125 -31 3
-5 10 -8 15 -7 8 3 115 -7 174 -16 14 -2 50 -6 80 -9 30 -4 69 -10 85 -14 34
-10 35 -25 10 -97 -44 -129 -48 -329 -10 -553 37 -216 73 -338 110 -376 16
-16 24 -15 90 15 52 22 197 42 255 35 25 -3 77 -9 115 -12 39 -3 77 -10 85
-14 8 -4 39 -10 69 -14 76 -10 139 -27 271 -76 63 -23 165 -60 225 -82 61 -22
142 -55 180 -73 115 -53 168 -74 212 -85 242 -61 489 -73 700 -36 73 13 163
35 200 49 114 43 188 65 195 58 10 -9 69 -277 75 -342 l6 -57 -49 -15 c-27 -9
-119 -28 -204 -44 -138 -24 -178 -27 -370 -27 -203 0 -219 2 -297 27 -119 37
-314 121 -407 175 -236 135 -492 241 -658 273 -199 38 -235 42 -438 41 -183
-1 -223 -4 -375 -31 -93 -17 -197 -38 -230 -47 -85 -24 -104 -17 -155 63 -24
38 -57 86 -75 108 -37 48 -79 118 -118 200 -30 62 -106 280 -113 325 -3 14
-12 59 -20 100 -19 93 -28 424 -13 498 5 29 19 73 29 97 18 43 21 44 52 38 18
-3 38 -10 44 -15z m834 -1426 c0 -10 -131 -54 -213 -72 -53 -11 -147 -6 -177
10 -27 14 -25 16 13 17 17 0 82 11 142 24 117 26 235 36 235 21z m2470 -447
c-7 -9 -10 -18 -6 -22 3 -3 -3 -12 -14 -20 -11 -8 -20 -19 -20 -26 0 -19 -103
-117 -124 -117 -10 0 -60 13 -110 29 -50 16 -110 34 -133 40 -39 11 -60 31
-32 31 7 0 17 7 24 16 8 12 39 19 111 26 54 5 131 17 171 27 51 13 75 15 82 8
8 -8 11 -8 11 0 0 10 16 18 44 22 5 0 3 -6 -4 -14z"/>
<path d="M5481 8409 c-137 -27 -367 -132 -501 -229 -101 -72 -270 -237 -270
-263 0 -10 -12 -29 -26 -42 -23 -21 -25 -30 -19 -61 14 -80 237 -248 403 -305
70 -24 238 -54 392 -70 140 -14 466 -17 612 -6 l107 9 7 31 c7 36 31 67 51 67
10 0 13 38 13 193 l0 193 -33 33 c-19 17 -61 43 -93 56 -54 22 -60 27 -65 60
-9 52 -32 80 -152 176 -179 144 -291 186 -426 158z m164 -136 c55 -32 195
-142 259 -203 9 -9 -46 -62 -131 -126 -70 -53 -185 -117 -250 -140 -35 -12
-57 -27 -69 -48 -16 -28 -16 -30 2 -43 10 -8 28 -12 39 -10 82 19 185 56 288
102 92 42 137 70 188 115 l67 60 6 -27 c38 -183 46 -321 20 -340 -15 -11 -198
-71 -279 -92 -100 -25 -313 -33 -460 -17 -120 13 -326 83 -432 147 -100 62
-173 127 -173 155 0 39 71 123 205 244 127 115 171 139 460 251 61 23 114 46
119 50 5 5 23 -2 40 -15 17 -12 63 -41 101 -63z m268 -73 c50 -38 57 -50 28
-50 -28 0 -121 78 -114 96 6 16 1 19 86 -46z"/>
<path d="M5375 8144 c-86 -46 -175 -130 -193 -182 -10 -30 -10 -30 47 -51 122
-44 245 -16 304 69 24 35 24 161 0 182 -37 32 -74 28 -158 -18z m143 -97 c9
-44 -66 -98 -155 -112 -57 -9 -56 8 1 64 63 62 146 88 154 48z"/>
<path d="M6800 8329 c-76 -9 -309 -97 -372 -140 -74 -51 -103 -82 -134 -146
-23 -47 -25 -56 -14 -90 17 -50 66 -148 100 -198 15 -22 49 -76 75 -120 60
-100 79 -121 135 -150 175 -87 604 -135 825 -90 166 33 281 115 325 231 23 62
24 74 10 74 -5 0 -10 8 -10 18 0 9 -33 85 -74 167 -113 231 -177 291 -401 378
-142 56 -333 83 -465 66z m255 -55 c70 -7 220 -51 286 -84 116 -59 231 -180
275 -289 24 -62 24 -165 0 -214 -27 -54 -107 -111 -201 -143 -75 -26 -91 -27
-255 -28 -164 0 -183 2 -300 31 -69 17 -159 47 -200 66 -165 76 -318 239 -323
344 -2 50 33 120 85 172 54 53 181 118 264 136 36 7 69 16 72 20 6 6 203 -1
297 -11z m569 -691 c-7 -29 -50 -73 -96 -98 -58 -32 -188 -54 -303 -51 -193 5
-243 31 -62 33 76 0 140 7 199 21 111 27 143 41 202 86 57 43 69 45 60 9z"/>
<path d="M6914 8104 c-18 -6 -45 -21 -60 -33 -16 -13 -30 -18 -32 -12 -5 14
-103 -92 -119 -128 -18 -39 -16 -79 6 -110 18 -25 163 -135 179 -137 4 0 53
-6 110 -14 121 -16 124 -14 148 71 26 93 24 155 -8 244 -43 120 -46 123 -125
127 -37 1 -82 -2 -99 -8z m167 -110 c10 -27 18 -63 18 -81 1 -17 6 -35 11 -38
12 -8 13 -86 1 -118 -5 -13 -21 -31 -35 -40 -24 -16 -30 -16 -93 1 -64 16 -68
19 -70 47 -8 102 -6 113 43 194 44 74 65 93 98 86 5 0 18 -23 27 -51z"/>
<path d="M7756 7790 c4 -36 8 -67 10 -69 9 -10 3 106 -6 119 -8 10 -9 -5 -4
-50z"/>
<path d="M4270 5990 c-9 -6 -78 -7 -187 -3 -125 4 -176 3 -186 -6 -9 -7 -83
-14 -208 -18 -187 -6 -239 -13 -239 -31 0 -5 79 -14 177 -21 97 -7 187 -17
200 -22 34 -13 32 -73 -3 -110 -26 -27 -25 -49 2 -49 28 0 16 -51 -21 -84 -19
-18 -35 -37 -35 -44 0 -6 -10 -14 -22 -18 -13 -4 -40 -22 -61 -40 l-37 -34
-105 0 c-98 0 -105 -1 -105 -20 0 -19 7 -20 94 -20 111 0 156 -8 156 -26 0
-22 -109 -151 -133 -158 -12 -3 -38 -6 -57 -6 -53 0 -67 -13 -42 -38 11 -11
26 -22 33 -24 12 -4 12 -10 0 -39 -7 -19 -15 -45 -18 -59 -3 -14 -29 -50 -57
-80 -66 -72 -128 -141 -143 -160 -10 -13 12 -15 190 -12 111 2 271 1 355 -3
l153 -7 -5 -27 c-4 -14 -7 -59 -8 -98 -1 -40 -5 -73 -9 -73 -11 0 -32 -40 -26
-47 3 -2 42 49 86 114 44 65 99 145 121 178 22 33 62 79 88 102 56 51 80 47
-230 43 -215 -2 -228 -1 -228 16 0 10 30 71 68 136 l67 118 95 -6 c52 -4 96
-8 98 -9 2 -1 -5 -46 -14 -98 -8 -53 -14 -101 -12 -107 7 -21 238 287 238 317
0 7 4 13 10 13 9 0 70 97 70 111 0 3 -46 4 -102 1 -83 -3 -107 -8 -124 -23
-16 -15 -36 -19 -97 -19 -45 0 -77 4 -77 10 0 15 152 304 164 312 5 4 42 5 81
2 38 -2 106 -6 150 -7 l80 -3 3 -51 c2 -31 -3 -66 -13 -87 -8 -20 -22 -53 -30
-73 l-16 -38 21 24 c11 13 24 29 28 35 4 6 17 17 29 23 23 13 27 12 221 -32
12 -3 22 -12 22 -20 0 -8 5 -15 10 -15 6 0 10 -9 10 -21 0 -12 11 -34 25 -51
19 -23 25 -41 25 -78 0 -39 4 -52 20 -60 14 -7 20 -21 20 -44 0 -18 -9 -45
-20 -59 -11 -14 -20 -29 -20 -34 0 -9 -31 -38 -47 -44 -6 -2 -42 -41 -82 -86
-40 -45 -87 -88 -104 -96 -34 -16 -112 -32 -217 -42 -70 -8 -104 -20 -95 -36
4 -5 19 -9 36 -9 16 0 63 -9 104 -20 42 -11 127 -23 193 -27 l118 -6 54 59
c152 162 174 184 191 184 20 0 79 -66 113 -127 36 -64 28 -69 -162 -95 -163
-23 -211 -43 -91 -39 35 1 87 -3 114 -8 57 -11 475 5 489 19 5 5 -3 20 -18 35
-14 14 -26 29 -26 34 0 4 -33 52 -73 107 -40 54 -85 119 -99 144 -14 25 -35
54 -47 64 -33 30 -28 81 12 120 76 72 187 167 231 196 25 17 49 37 53 44 5 7
22 18 40 25 17 7 41 23 53 36 22 23 22 23 2 34 -27 15 -314 13 -415 -2 -80
-12 -105 -30 -52 -35 17 -2 47 -8 68 -13 30 -8 37 -14 37 -34 0 -14 -6 -25
-13 -25 -7 0 -39 -27 -72 -60 -33 -33 -67 -60 -76 -60 -10 0 -28 25 -49 71
-31 67 -34 97 -16 140 6 13 -1 18 -31 22 -56 10 -248 8 -275 -2 -13 -4 -47
-11 -76 -15 l-54 -7 7 32 c4 18 11 37 16 43 5 6 30 40 56 76 27 35 65 80 86
98 20 19 37 39 37 46 0 7 -38 11 -122 11 -68 0 -163 3 -213 8 -56 4 -96 4
-105 -3z m350 -56 c0 -11 -94 -133 -102 -134 -5 0 -8 6 -8 14 0 8 -10 22 -22
30 -30 22 -441 22 -478 1 -24 -14 -22 -14 33 -15 31 0 57 -4 57 -9 0 -5 -36
-82 -80 -170 -44 -88 -80 -162 -80 -164 0 -2 18 -9 41 -16 55 -17 249 -2 249
19 0 4 23 10 50 12 28 1 50 0 50 -3 0 -3 -19 -28 -42 -55 -24 -27 -65 -85 -93
-127 -27 -42 -52 -77 -55 -77 -3 0 -4 19 -2 43 2 28 -1 47 -10 54 -16 12 -228
26 -245 15 -6 -4 -22 -32 -36 -62 -32 -71 -141 -236 -159 -242 -10 -4 -11 -8
-1 -20 11 -13 47 -14 249 -11 139 2 235 0 233 -5 -9 -23 -184 -270 -187 -263
-1 5 2 35 7 67 13 87 4 95 -118 93 -53 0 -102 -6 -109 -11 -9 -8 -20 -7 -38 1
-14 6 -30 9 -35 6 -5 -4 -53 -8 -106 -10 -54 -2 -143 -7 -198 -10 l-100 -6 93
90 c123 119 190 232 152 256 -21 13 -9 25 24 25 30 0 40 8 90 70 31 38 69 81
84 95 l27 25 -32 31 -31 32 59 50 c74 61 148 165 128 178 -8 5 -20 9 -26 9
-15 0 -17 26 -3 35 6 4 21 28 35 54 19 39 22 52 12 65 -12 16 -88 33 -134 30
-13 -1 -23 3 -23 7 0 5 198 9 440 9 242 0 440 -3 440 -6z m837 -277 c-327
-253 -387 -311 -387 -379 0 -29 22 -61 220 -308 33 -41 60 -77 60 -80 0 -3
-10 -5 -22 -6 -56 -1 -294 -16 -298 -19 -3 -1 -14 1 -25 5 -14 5 -2 9 43 15
34 4 64 11 67 16 17 27 -105 222 -156 249 -12 7 -43 -17 -135 -105 -127 -122
-164 -143 -233 -131 -20 4 -69 9 -108 12 -83 7 -99 24 -23 24 74 0 107 18 190
106 222 234 231 250 191 325 -11 20 -25 56 -31 80 -6 24 -23 61 -36 82 -14 21
-24 46 -22 56 2 9 -5 29 -15 44 l-18 27 81 -1 c75 -1 80 -3 80 -23 0 -24 110
-228 126 -233 6 -2 17 9 25 23 8 15 37 44 65 65 63 47 124 119 124 147 0 20 6
21 88 24 48 2 107 4 132 5 l45 2 -28 -22z"/>
<path d="M6200 5688 c-63 -5 -158 -6 -210 -3 -94 6 -301 -8 -322 -21 -6 -4 5
-15 27 -27 28 -14 67 -21 142 -25 90 -4 103 -7 109 -24 4 -13 -2 -26 -20 -41
-14 -13 -26 -29 -27 -37 0 -8 -13 -25 -28 -37 -23 -18 -55 -26 -162 -39 -74
-9 -135 -17 -137 -18 -1 -2 43 -6 99 -9 56 -4 107 -11 115 -17 7 -7 16 -32 20
-57 6 -43 5 -46 -30 -75 -26 -22 -36 -37 -36 -59 0 -16 -4 -29 -10 -29 -5 0
-12 -11 -16 -25 -3 -14 -10 -25 -15 -25 -5 0 -9 -7 -9 -15 0 -8 -9 -22 -20
-33 -18 -16 -130 -195 -130 -207 0 -3 -9 -14 -20 -25 -11 -11 -20 -27 -20 -35
0 -27 -38 -91 -63 -108 -13 -8 -44 -21 -68 -27 -75 -19 -79 -21 -79 -36 0 -10
13 -14 45 -14 43 0 45 -1 45 -30 0 -16 -4 -30 -9 -30 -5 0 -12 -11 -15 -25 -9
-34 -42 -63 -106 -93 -30 -14 -57 -28 -60 -32 -7 -9 -166 -58 -214 -65 -21 -4
-35 -10 -30 -14 5 -5 137 -2 294 6 239 12 294 18 343 35 71 26 76 51 9 56 -43
3 -53 17 -30 40 10 10 10 17 0 32 -6 11 -12 26 -12 33 0 17 42 54 67 59 14 3
17 11 15 40 -2 28 5 47 28 79 16 23 30 48 30 56 0 7 4 13 8 13 5 0 24 23 43
50 34 50 66 71 78 53 16 -25 52 -31 166 -27 203 7 354 68 498 200 86 79 116
122 117 165 0 14 6 31 13 37 8 9 12 44 12 100 0 73 -4 96 -26 143 -33 70 -90
134 -143 161 -54 28 -121 34 -256 26z m120 -48 c159 -22 206 -53 249 -167 24
-63 28 -175 9 -232 -20 -58 -76 -138 -132 -187 -61 -54 -229 -138 -306 -153
-65 -13 -226 -17 -256 -7 -12 3 -33 24 -47 45 -21 31 -31 38 -47 34 -12 -3
-26 -17 -31 -30 -10 -27 -96 -173 -141 -241 -15 -23 -28 -52 -28 -64 0 -24
-27 -58 -45 -58 -30 0 -45 -49 -29 -99 5 -17 4 -22 -4 -17 -8 5 -12 0 -12 -14
0 -12 13 -28 33 -40 17 -11 30 -20 27 -21 -3 0 -70 -2 -150 -5 -80 -2 -160 -6
-177 -8 -18 -3 -33 -1 -33 5 0 5 8 9 18 9 11 0 46 17 78 38 46 30 64 49 79 83
10 24 32 58 48 76 19 20 27 38 23 48 -4 11 6 31 29 58 37 43 85 134 85 161 0
8 14 30 30 48 17 18 47 62 67 98 74 132 126 216 155 246 23 24 30 44 35 87 4
36 2 62 -6 70 -14 17 1 32 42 42 15 4 27 10 27 14 0 4 16 34 36 67 24 40 34
68 32 86 -3 16 0 28 6 28 54 2 192 13 196 17 2 2 16 2 30 -1 14 -3 63 -10 110
-16z"/>
<path d="M6105 5429 c-22 -41 -78 -125 -125 -189 -104 -141 -120 -165 -120
-185 0 -12 18 -15 108 -16 145 -2 151 -1 197 26 53 31 83 65 142 160 64 103
75 133 71 185 -5 64 -34 82 -145 87 l-89 5 -39 -73z m227 14 c10 -9 18 -26 18
-38 0 -37 -86 -210 -126 -255 -59 -65 -98 -80 -204 -80 -80 0 -90 2 -90 18 0
19 115 182 209 298 l58 70 59 2 c41 1 63 -3 76 -15z"/>
<path d="M6741 5678 c-41 -5 -86 -15 -100 -23 l-26 -13 30 -12 c37 -15 152
-40 183 -40 27 0 29 -30 7 -84 -13 -30 -20 -36 -44 -36 -59 0 -82 -28 -41 -50
29 -16 25 -53 -15 -145 -19 -44 -35 -85 -35 -91 0 -7 -7 -14 -15 -18 -8 -3
-15 -15 -15 -26 0 -11 -4 -20 -9 -20 -12 0 -71 -102 -71 -122 0 -14 -49 -48
-70 -48 -7 0 -35 -14 -63 -31 -27 -17 -68 -34 -90 -37 -22 -4 -42 -13 -44 -19
-3 -9 59 -13 249 -15 139 -2 255 0 256 5 2 4 10 7 18 7 16 0 56 59 48 72 -3 4
-18 8 -33 8 -30 0 -51 16 -51 39 0 8 28 61 62 119 59 100 62 104 91 98 16 -3
42 -6 58 -6 19 0 29 -5 29 -14 0 -20 270 -28 277 -8 3 6 15 12 28 12 32 0 51
27 64 90 7 30 39 114 71 186 33 73 60 144 60 158 0 19 -9 32 -32 47 -28 18
-44 20 -108 15 -92 -7 -145 -21 -171 -47 -10 -10 -24 -19 -30 -19 -5 0 -27
-11 -47 -25 -53 -36 -66 -33 -57 12 4 21 12 41 18 45 9 6 9 12 1 25 -10 16
-29 18 -160 19 -82 1 -182 -3 -223 -8z m313 -105 c-20 -43 -41 -88 -47 -101
-27 -57 37 -31 147 62 94 78 131 93 244 99 129 6 134 -4 72 -138 -53 -116 -80
-184 -80 -203 0 -37 -35 -59 -105 -67 -37 -4 -69 -4 -72 -2 -2 3 5 27 16 52
12 26 21 63 21 81 0 20 5 34 12 34 38 0 -55 38 -110 45 -43 6 -99 -13 -135
-44 -18 -16 -54 -67 -80 -114 -26 -46 -59 -97 -73 -113 -14 -16 -28 -41 -31
-56 -3 -16 -10 -28 -15 -28 -5 0 -6 5 -3 10 3 6 2 10 -3 10 -12 0 -41 -71 -44
-107 -2 -38 18 -71 47 -79 65 -16 -2 -29 -140 -27 -11 0 -53 1 -94 2 -62 1
-72 3 -62 15 6 8 25 19 41 26 19 8 43 33 64 69 44 71 128 239 156 310 11 30
36 77 55 105 40 60 72 181 54 202 -6 8 -17 14 -25 14 -7 0 -16 5 -19 10 -4 6
38 10 119 10 l125 0 -35 -77z m146 -192 c16 -32 12 -70 -11 -89 -12 -9 -35
-29 -52 -44 -28 -25 -39 -28 -105 -28 l-74 0 7 28 c10 41 54 105 89 130 42 30
130 31 146 3z"/>
<path d="M7955 5641 c-16 -5 -47 -9 -68 -10 -66 -2 -247 -126 -247 -170 0 -6
-7 -14 -15 -17 -8 -4 -15 -12 -15 -20 0 -8 -5 -14 -10 -14 -6 0 -20 -21 -31
-47 -11 -27 -27 -51 -34 -56 -7 -4 -19 -23 -25 -42 -6 -19 -16 -35 -21 -35
-15 0 -40 -72 -41 -115 -1 -77 18 -121 72 -162 27 -21 49 -43 50 -50 0 -19 10
-21 145 -28 177 -9 235 2 372 70 61 30 116 55 122 55 12 0 61 47 61 60 0 5 -9
11 -19 15 -11 3 -25 12 -31 20 -11 13 -4 15 49 15 l61 0 0 -46 c0 -25 -8 -62
-17 -81 -15 -32 -15 -39 -2 -62 8 -14 28 -32 43 -40 71 -34 259 -43 426 -21
104 14 141 25 175 52 14 11 34 18 44 15 14 -3 23 5 35 30 15 32 15 36 1 47
-15 11 -15 19 -2 89 8 43 18 81 21 84 3 3 24 -2 46 -12 34 -15 40 -23 40 -48
0 -38 -20 -107 -32 -107 -4 0 -8 -9 -8 -20 0 -11 -5 -20 -11 -20 -6 0 -9 -20
-7 -52 l3 -52 45 -15 c62 -19 406 -22 469 -3 65 20 104 64 132 151 l24 73 -22
36 c-24 42 -114 102 -153 102 -15 0 -30 4 -35 9 -6 5 -23 11 -40 13 -22 2 -30
8 -30 23 0 14 -8 21 -27 23 -25 3 -28 7 -28 41 0 41 13 58 69 86 27 13 47 15
101 10 62 -6 68 -9 73 -31 8 -42 -20 -63 -88 -68 -141 -10 -112 -38 56 -55 63
-6 140 -11 171 -11 l56 0 51 113 c72 160 68 223 -17 247 -20 5 -111 10 -202
10 -91 0 -204 5 -253 10 -86 10 -88 10 -130 -17 -23 -15 -43 -28 -45 -28 -1
-1 3 -17 10 -35 9 -26 9 -35 -1 -38 -31 -10 -81 -172 -52 -172 6 0 11 -6 11
-13 0 -29 48 -68 137 -111 100 -49 107 -59 101 -131 -4 -45 -30 -68 -99 -86
-94 -25 -126 10 -95 106 9 28 16 56 16 62 0 5 -61 15 -137 21 -83 6 -150 17
-169 26 -17 9 -68 23 -114 32 -46 8 -97 22 -112 30 -25 13 -28 20 -28 62 1 50
10 67 50 95 46 32 195 14 188 -23 -2 -8 -14 -17 -28 -18 -14 -2 -33 -11 -42
-19 -9 -8 -49 -20 -89 -27 -112 -19 -68 -29 124 -29 165 0 171 1 189 23 10 12
18 35 18 50 0 15 7 41 15 56 21 41 19 76 -8 115 -39 57 -81 79 -156 80 -357 3
-354 3 -421 -61 -27 -26 -50 -53 -50 -59 0 -6 -4 -11 -10 -11 -5 0 -10 -7 -10
-15 0 -8 -4 -15 -10 -15 -5 0 -10 -11 -10 -25 0 -14 -3 -25 -7 -25 -5 0 -9
-31 -11 -69 l-3 -69 38 -29 c21 -16 46 -33 56 -36 9 -4 17 -13 17 -22 0 -11
11 -15 46 -15 61 0 129 -18 149 -40 27 -30 16 -81 -24 -104 -34 -20 -154 -28
-179 -12 -23 14 -12 51 23 79 43 34 37 52 -14 42 -20 -4 -117 -9 -216 -11
-194 -4 -224 -7 -187 -19 14 -5 22 -14 20 -24 -3 -14 -29 -17 -198 -21 -144
-4 -202 -9 -220 -19 l-25 -15 25 -7 c14 -4 44 -7 67 -8 53 -1 73 -9 66 -27
-12 -31 -213 -8 -213 25 0 12 31 135 35 140 2 1 115 7 252 13 136 5 260 11
275 12 31 3 51 16 25 16 -22 0 -22 3 12 90 26 70 28 80 19 149 -12 101 -39
146 -108 181 -29 15 -201 23 -245 11z m229 -55 c17 -7 42 -26 56 -41 23 -25
25 -34 25 -129 0 -78 -4 -111 -19 -144 l-19 -42 -282 0 c-249 0 -284 -2 -289
-16 -11 -28 -7 -36 14 -31 11 3 20 4 20 4 0 -1 -16 -33 -35 -71 -40 -77 -39
-96 8 -124 43 -26 80 -34 155 -33 66 1 138 28 149 57 4 11 14 14 34 10 22 -4
29 -2 29 9 0 12 16 15 81 15 102 0 97 -10 -41 -79 -117 -59 -186 -75 -297 -69
-73 4 -93 9 -161 45 -48 25 -85 52 -99 73 -66 95 16 291 197 472 80 80 92 88
127 88 21 0 47 7 58 16 16 12 42 14 139 9 65 -3 133 -12 150 -19z m860 0 c90
-27 102 -58 67 -171 l-19 -60 -51 -9 c-28 -5 -54 -7 -56 -4 -3 3 5 23 17 46
40 72 13 89 -150 91 -92 1 -92 1 -130 -33 -34 -32 -37 -38 -36 -90 0 -45 5
-61 25 -82 34 -36 67 -52 130 -60 71 -9 90 -17 133 -54 29 -26 36 -39 36 -70
0 -96 -65 -163 -184 -190 -65 -14 -202 -24 -223 -15 -10 4 -66 8 -125 9 -65 1
-112 6 -119 13 -8 8 -8 29 0 80 22 129 19 123 56 123 18 0 36 -6 38 -12 4 -10
8 -10 14 -2 7 11 35 18 56 15 5 0 1 -11 -7 -23 -9 -12 -16 -37 -16 -55 0 -41
25 -53 109 -53 119 0 205 48 217 122 5 30 2 38 -26 62 -46 38 -100 64 -162 77
-29 7 -72 20 -96 30 l-44 19 6 76 c3 47 11 81 20 88 7 6 16 23 20 38 7 33 56
79 98 95 49 17 343 17 402 -1z m844 -11 c6 -2 12 -18 12 -35 0 -16 5 -30 11
-30 18 0 2 -61 -22 -86 -11 -12 -26 -46 -32 -74 -9 -40 -18 -55 -35 -61 -22
-8 -23 -7 -17 29 6 35 5 36 -9 18 -9 -11 -16 -23 -16 -27 0 -9 -68 -17 -81 -9
-7 5 -6 15 1 34 17 46 12 73 -21 100 -29 25 -36 26 -123 23 -112 -5 -149 -21
-166 -73 -7 -20 -10 -58 -8 -85 3 -27 4 -49 2 -49 -20 0 -96 45 -114 66 -18
24 -21 37 -16 78 3 29 14 58 26 71 11 12 20 30 20 41 0 28 49 72 85 76 41 4
487 -2 503 -7z m-302 -406 c42 -13 79 -32 97 -50 27 -27 29 -34 25 -85 -5 -61
-32 -107 -67 -112 -12 -2 -32 -14 -46 -28 -13 -13 -34 -24 -47 -24 -13 -1 -48
-3 -78 -5 -43 -3 -350 13 -357 19 -1 0 8 42 19 91 11 50 22 108 25 130 6 45
16 55 57 55 20 0 27 -4 23 -14 -14 -36 -17 -132 -5 -146 29 -35 63 -50 116
-50 48 0 59 5 112 45 65 50 67 57 36 144 -9 24 -16 45 -16 47 0 9 43 2 106
-17z"/>
<path d="M7892 5488 c-39 -32 -97 -132 -86 -150 3 -4 16 -8 29 -8 13 0 25 -5
27 -11 3 -8 10 -9 23 -2 11 5 62 8 114 6 86 -3 96 -1 118 19 22 20 23 21 24 2
0 -17 1 -16 9 4 5 12 8 43 6 70 -4 43 -7 49 -47 75 -36 22 -54 27 -110 27 -60
0 -71 -3 -107 -32z m193 -14 c21 -14 25 -24 25 -64 l0 -47 -39 -6 c-61 -8
-211 4 -211 17 1 52 35 83 115 102 68 17 82 17 110 -2z"/>
</g>
</svg>
